<svg xmlns="http://www.w3.org/2000/svg" viewBox="0 0 128 128">
<defs><radialGradient id="g" cx="35%" cy="25%" r="80%"><stop offset="0" stop-color="#19245c"/><stop offset="1" stop-color="#070916"/></radialGradient></defs>
<circle cx="64" cy="64" r="62" fill="url(#g)" stroke="#7ea7ff" stroke-opacity=".55" stroke-width="3"/>
<path d="M30 18l3 8 8 3-8 3-3 8-3-8-8-3 8-3zM100 24l2 6 6 2-6 2-2 6-2-6-6-2 6-2zM104 76l3 8 8 3-8 3-3 8-3-8-8-3 8-3zM24 90l2 6 6 2-6 2-2 6-2-6-6-2 6-2z" fill="#fff2ad"/>
<circle cx="65" cy="63" r="29" fill="#e8d377"/>
<circle cx="82" cy="51" r="29" fill="#080c24"/>
</svg>